HIERARCHY
ROOT Hips
{
	OFFSET 53.413799 6.215976 85.051003
	CHANNELS 6 Xposition Yposition Zposition Xrotation Yrotation Zrotation
	JOINT spine
	{
		OFFSET 0.000000 -0.367607 6.392601
		CHANNELS 3 Xrotation Yrotation Zrotation
		JOINT spine1
		{
			OFFSET 0.000000 -0.000001 9.176109
			CHANNELS 3 Xrotation Yrotation Zrotation
			JOINT spine2
			{
				OFFSET 0.000000 -0.000001 8.792381
				CHANNELS 3 Xrotation Yrotation Zrotation
				JOINT Neck
				{
					OFFSET 0.000000 -1.076244 22.573700
					CHANNELS 3 Xrotation Yrotation Zrotation
					JOINT Head
					{
						OFFSET 0.000000 -0.000001 6.820114
						CHANNELS 3 Xrotation Yrotation Zrotation
						End Site
						{
							OFFSET 0.000000 5.444266 16.508499
						}
					}
				}
				JOINT RightShoulder
				{
					OFFSET -3.702209 0.515506 9.495087
					CHANNELS 3 Xrotation Yrotation Zrotation
					JOINT RightArm
					{
						OFFSET 0.000000 -0.000002 12.453705
						CHANNELS 3 Xrotation Yrotation Zrotation
						JOINT RightArmRoll
						{
							OFFSET 0.000000 -0.000001 6.286865
							CHANNELS 3 Xrotation Yrotation Zrotation
							JOINT RightForeArm
							{
								OFFSET 0.000000 -0.000003 18.311401
								CHANNELS 3 Xrotation Yrotation Zrotation
								JOINT RightForeArmRoll
								{
									OFFSET 0.000000 -0.000001 7.054825
									CHANNELS 3 Xrotation Yrotation Zrotation
									JOINT RightHand
									{
										OFFSET 0.000000 -0.000002 14.157501
										CHANNELS 3 Xrotation Yrotation Zrotation
										End Site
										{
											OFFSET 0.000000 0.000000 0.100006
										}
									}
								}
							}
						}
					}
				}
				JOINT LeftShoulder
				{
					OFFSET 3.702209 0.515506 9.495087
					CHANNELS 3 Xrotation Yrotation Zrotation
					JOINT LeftArm
					{
						OFFSET 0.000000 -0.000002 12.453705
						CHANNELS 3 Xrotation Yrotation Zrotation
						JOINT LeftArmRoll
						{
							OFFSET 0.000000 -0.000001 6.286865
							CHANNELS 3 Xrotation Yrotation Zrotation
							JOINT LeftForeArm
							{
								OFFSET 0.000000 -0.000003 18.311401
								CHANNELS 3 Xrotation Yrotation Zrotation
								JOINT LeftForeArmRoll
								{
									OFFSET 0.000000 -0.000001 7.054825
									CHANNELS 3 Xrotation Yrotation Zrotation
									JOINT LeftHand
									{
										OFFSET 0.000000 -0.000002 14.157501
										CHANNELS 3 Xrotation Yrotation Zrotation
										End Site
										{
											OFFSET 0.000000 0.000000 0.100006
										}
									}
								}
							}
						}
					}
				}
			}
		}
	}
	JOINT RightUpLeg
	{
		OFFSET -5.666149 0.871610 -1.039032
		CHANNELS 3 Xrotation Yrotation Zrotation
		JOINT RightUpLegRoll
		{
			OFFSET 0.000000 -0.000002 16.600502
			CHANNELS 3 Xrotation Yrotation Zrotation
			JOINT RightLeg
			{
				OFFSET 0.000000 0.000003 -20.557198
				CHANNELS 3 Xrotation Yrotation Zrotation
				JOINT RightLegRoll
				{
					OFFSET 0.000000 -0.000003 20.624397
					CHANNELS 3 Xrotation Yrotation Zrotation
					JOINT RightFoot
					{
						OFFSET 0.000000 -0.000003 17.166397
						CHANNELS 3 Xrotation Yrotation Zrotation
						JOINT RightToeBase
						{
							OFFSET 0.000000 -0.000002 14.350204
							CHANNELS 3 Xrotation Yrotation Zrotation
							End Site
							{
								OFFSET 0.006081 0.801060 6.949707
							}
						}
					}
				}
			}
		}
	}
	JOINT LeftUpLeg
	{
		OFFSET 5.666149 0.871610 -1.039032
		CHANNELS 3 Xrotation Yrotation Zrotation
		JOINT LeftUpLegRoll
		{
			OFFSET 0.000000 -0.000002 16.600601
			CHANNELS 3 Xrotation Yrotation Zrotation
			JOINT LeftLeg
			{
				OFFSET 0.000000 -0.000003 20.557098
				CHANNELS 3 Xrotation Yrotation Zrotation
				JOINT LeftLegRoll
				{
					OFFSET 0.000000 -0.000004 20.815102
					CHANNELS 3 Xrotation Yrotation Zrotation
					JOINT LeftFoot
					{
						OFFSET 0.000000 -0.000002 16.975708
						CHANNELS 3 Xrotation Yrotation Zrotation
						JOINT LeftToeBase
						{
							OFFSET 0.000000 -0.000002 14.350204
							CHANNELS 3 Xrotation Yrotation Zrotation
							End Site
							{
								OFFSET -0.027260 0.801060 6.949707
							}
						}
					}
				}
			}
		}
	}
}
MOTION
Frames: 13
Frame Time: 0.041667
55.019798 -7.792056 85.684090 -2.458689 0.366660 1.199944 -1.365709 0.540088 -0.159626 1.276126 1.078382 -0.317357 2.921294 1.074472 -0.330099 8.254735 -8.638856 1.540864 7.873779 6.087404 1.812437 -13.145810 -63.666393 -15.692435 -46.255813 -117.044294 -44.442163 -0.000002 -0.000001 -0.000008 6.949957 -16.362731 0.870846 0.000002 -0.000004 -3.000001 -5.000196 -7.998854 0.000159 -1.407366 50.987543 0.676136 -33.650959 122.150762 35.263058 0.000000 0.000001 0.000005 7.077766 11.623807 -0.197549 -0.000000 0.000003 3.000001 -5.000221 7.998706 -0.000152 -0.359167 -176.966049 0.586786 -179.999991 0.000005 -1.051994 171.593613 -3.785007 -0.730935 -0.000006 -0.000000 0.102306 69.823549 6.837467 2.216190 25.456919 -7.351773 -0.000002 1.481477 176.391206 1.012460 -0.000005 -0.000004 -1.091960 -7.290756 1.199377 0.548362 -0.000005 -0.000002 -0.125718 70.444201 -6.823549 -2.183073 25.602192 7.346975 -0.200950 
55.015701 -7.792241 85.682404 -2.460929 0.367897 1.197031 -1.364218 0.540104 -0.159618 1.278867 1.078651 -0.317142 2.924045 1.074729 -0.329886 8.249001 -8.647733 1.538735 7.874507 6.090811 1.811389 -13.157950 -63.669029 -15.706544 -46.262944 -117.036999 -44.453911 -0.000002 -0.000001 -0.000008 6.960401 -16.364971 0.872462 0.000004 -0.000004 -3.000000 -5.000190 -7.998855 0.000159 -1.411836 50.978787 0.680512 -33.656573 122.154627 35.268279 -0.000001 0.000000 0.000005 7.069513 11.622714 -0.196870 0.000002 0.000003 3.000002 -5.000221 7.998704 -0.000150 -0.354410 -176.968070 0.585865 -179.999991 0.000005 -1.051994 171.599637 -3.784079 -0.730391 -0.000006 -0.000000 0.102290 69.819949 6.837480 2.216113 25.456919 -7.351773 -0.000002 1.482389 176.390195 1.012267 -0.000005 -0.000004 -1.091960 -7.293752 1.197732 0.548343 -0.000005 -0.000001 -0.125646 70.445267 -6.823570 -2.183010 25.601781 7.346969 -0.201546 
55.020302 -7.792817 85.683990 -2.463291 0.369139 1.194120 -1.362711 0.540127 -0.159611 1.281648 1.078920 -0.316934 2.926826 1.074996 -0.329681 8.243031 -8.656466 1.536632 7.875440 6.094006 1.810408 -13.170361 -63.671638 -15.720951 -46.268996 -117.030524 -44.464368 -0.000001 -0.000002 -0.000008 6.970940 -16.367107 0.874061 0.000002 -0.000003 -3.000001 -5.000194 -7.998852 0.000159 -1.416216 50.970034 0.684784 -33.662167 122.158507 35.273713 0.000000 0.000001 0.000005 7.061736 11.621715 -0.196241 0.000003 0.000003 3.000001 -5.000218 7.998704 -0.000152 -0.349365 -176.971048 0.584998 -179.999991 0.000005 -1.051994 171.605976 -3.784140 -0.729974 -0.000005 -0.000000 0.102266 69.816233 6.837456 2.216139 25.456918 -7.351774 -0.000001 1.483602 176.389212 1.012085 -0.000005 -0.000004 -1.091960 -7.296368 1.196029 0.548314 -0.000006 -0.000002 -0.125539 70.446113 -6.823581 -2.183061 25.601385 7.346966 -0.202151 
55.011200 -7.783665 85.689491 -2.465741 0.370383 1.191209 -1.361190 0.540157 -0.159607 1.284448 1.079179 -0.316729 2.929626 1.075253 -0.329480 8.236908 -8.665094 1.534550 7.876524 6.097053 1.809453 -13.182921 -63.674234 -15.735552 -46.276792 -117.023489 -44.476720 -0.000001 -0.000002 -0.000007 6.981550 -16.369337 0.875675 0.000001 -0.000004 -3.000001 -5.000193 -7.998853 0.000159 -1.420532 50.961390 0.688983 -33.667939 122.162428 35.279457 0.000000 -0.000000 0.000006 7.054300 11.620801 -0.195658 -0.000002 0.000003 3.000001 -5.000221 7.998705 -0.000151 -0.344115 -176.973056 0.584157 -179.999991 0.000005 -1.051994 171.612533 -3.784204 -0.729542 -0.000006 -0.000000 0.102236 69.812320 6.837456 2.216079 25.456918 -7.351774 -0.000001 1.485026 176.388201 1.011899 -0.000005 -0.000004 -1.091960 -7.298733 1.194287 0.548279 -0.000005 -0.000001 -0.125408 70.446872 -6.823595 -2.183017 25.600978 7.346966 -0.202777 
55.012699 -7.786647 85.684593 -2.468231 0.371629 1.188309 -1.359651 0.540188 -0.159603 1.287269 1.079447 -0.316529 2.932447 1.075510 -0.329281 8.230693 -8.673673 1.532478 7.877683 6.100010 1.808520 -13.195571 -63.676713 -15.750235 -46.284589 -117.016454 -44.489079 -0.000000 -0.000001 -0.000008 6.992203 -16.371468 0.877268 0.000003 -0.000004 -3.000001 -5.000191 -7.998854 0.000159 -1.424815 50.952832 0.693144 -33.673683 122.166362 35.285276 0.000000 0.000001 0.000005 7.047044 11.619888 -0.195095 0.000002 0.000003 2.999999 -5.000220 7.998705 -0.000151 -0.338748 -176.975037 0.583337 -179.999991 0.000005 -1.051994 171.619158 -3.783281 -0.729955 -0.000006 -0.000000 0.102204 69.808297 6.837454 2.216127 25.456921 -7.351774 -0.000002 1.486569 176.387217 1.011716 -0.000005 -0.000004 -1.091960 -7.300938 1.192525 0.548240 -0.000006 -0.000001 -0.125263 70.447507 -6.823603 -2.183080 25.600572 7.346974 -0.203398 
55.016800 -7.792397 85.690201 -2.470732 0.372876 1.185400 -1.358122 0.540221 -0.159598 1.290089 1.079717 -0.316329 2.935268 1.075767 -0.329082 8.224458 -8.682235 1.530407 7.878871 6.102943 1.807588 -13.208223 -63.679192 -15.764932 -46.291132 -117.010197 -44.499967 -0.000002 -0.000001 -0.000008 7.002865 -16.373594 0.878866 0.000001 -0.000004 -3.000001 -5.000191 -7.998852 0.000159 -1.429083 50.944175 0.697289 -33.679454 122.170269 35.291137 0.000000 0.000001 0.000004 7.039857 11.619069 -0.194547 0.000001 0.000003 3.000000 -5.000221 7.998704 -0.000151 -0.333350 -176.977059 0.582519 -179.999991 0.000005 -1.051994 171.625852 -3.783346 -0.729514 -0.000006 -0.000000 0.102171 69.804274 6.837449 2.216174 25.456916 -7.351774 -0.000002 1.488145 176.386220 1.011531 -0.000005 -0.000004 -1.091960 -7.303113 1.190744 0.548197 -0.000005 -0.000001 -0.125114 70.448156 -6.823613 -2.183141 25.600171 7.346970 -0.204022 
55.014000 -7.790789 85.685097 -2.473211 0.374122 1.182489 -1.356592 0.540253 -0.159595 1.292900 1.079985 -0.316127 2.938078 1.076024 -0.328884 8.218263 -8.690824 1.528328 7.880017 6.105930 1.806654 -13.220874 -63.681761 -15.779620 -46.298922 -117.003162 -44.512319 0.000000 -0.000001 -0.000008 7.013496 -16.375732 0.880467 0.000001 -0.000004 -3.000001 -5.000191 -7.998855 0.000159 -1.433369 50.935528 0.701453 -33.685219 122.174203 35.296942 0.000001 -0.000000 0.000005 7.032555 11.618253 -0.193985 0.000000 0.000003 3.000001 -5.000223 7.998705 -0.000152 -0.328013 -176.979040 0.581693 -179.999991 0.000005 -1.051994 171.632463 -3.782424 -0.728933 -0.000006 -0.000000 0.102139 69.800346 6.837450 2.216118 25.456924 -7.351774 -0.000002 1.489649 176.386220 1.011376 -0.000005 -0.000004 -1.091960 -7.305360 1.188982 0.548159 -0.000006 -0.000001 -0.124972 70.448880 -6.823594 -2.183192 25.599660 7.346972 -0.204625 
55.013599 -7.785398 85.687790 -2.475630 0.375366 1.179589 -1.355069 0.540280 -0.159590 1.295701 1.080244 -0.315923 2.940879 1.076291 -0.328681 8.212180 -8.699480 1.526231 7.881051 6.109016 1.805686 -13.233378 -63.684260 -15.794150 -46.305155 -116.996756 -44.522954 -0.000003 -0.000002 -0.000008 7.024085 -16.377861 0.882066 0.000001 -0.000003 -3.000000 -5.000196 -7.998855 0.000159 -1.437696 50.926871 0.705664 -33.690963 122.178137 35.302625 -0.000000 0.000000 0.000006 7.025022 11.617247 -0.193386 0.000002 0.000003 3.000002 -5.000220 7.998705 -0.000150 -0.322819 -176.982045 0.580848 -179.999991 0.000005 -1.051994 171.638979 -3.782487 -0.728504 -0.000006 -0.000000 0.102111 69.796535 6.837420 2.216145 25.456916 -7.351774 -0.000001 1.491015 176.385209 1.011194 -0.000005 -0.000004 -1.091960 -7.307796 1.187260 0.548126 -0.000005 -0.000002 -0.124848 70.449631 -6.823604 -2.183249 25.599259 7.346971 -0.205240 
55.010601 -7.787427 85.683586 -2.477961 0.376607 1.176678 -1.353561 0.540301 -0.159583 1.298471 1.080513 -0.315712 2.943650 1.076548 -0.328473 8.206282 -8.708251 1.524108 7.881926 6.112273 1.804683 -13.245709 -63.686869 -15.808478 -46.312480 -116.989529 -44.534872 -0.000003 -0.000002 -0.000008 7.034603 -16.380095 0.883687 0.000003 -0.000004 -3.000000 -5.000192 -7.998854 0.000159 -1.442096 50.918217 0.709958 -33.696571 122.182003 35.307997 -0.000001 0.000001 0.000005 7.017102 11.616247 -0.192749 0.000002 0.000003 3.000001 -5.000221 7.998704 -0.000152 -0.317863 -176.984053 0.579957 -179.999991 0.000005 -1.051994 171.645195 -3.781560 -0.727948 -0.000006 -0.000000 0.102089 69.792717 6.837421 2.216181 25.456914 -7.351776 -0.000002 1.492136 176.384226 1.011007 -0.000005 -0.000004 -1.091960 -7.310532 1.185576 0.548099 -0.000006 -0.000001 -0.124752 70.450580 -6.823589 -2.183287 25.598852 7.346968 -0.205846 
55.016899 -7.793736 85.685188 -2.480163 0.377845 1.173756 -1.352092 0.540314 -0.159574 1.301202 1.080771 -0.315494 2.946381 1.076805 -0.328258 8.200632 -8.717187 1.521952 7.882586 6.115759 1.803622 -13.257826 -63.689602 -15.822553 -46.319659 -116.982235 -44.546651 -0.000000 -0.000002 -0.000008 7.045013 -16.382330 0.885306 0.000002 -0.000004 -3.000001 -5.000194 -7.998856 0.000159 -1.446587 50.909365 0.714353 -33.703036 122.185063 35.314110 0.000001 -0.000000 0.000005 7.008661 11.615063 -0.192039 0.000003 0.000003 3.000000 -5.000221 7.998706 -0.000150 -0.313224 -176.986047 0.579013 -179.999991 0.000005 -1.051994 171.651123 -3.781617 -0.727558 -0.000006 -0.000000 0.102076 69.789234 6.837436 2.216099 25.456921 -7.351773 -0.000002 1.492929 176.383215 1.010811 -0.000005 -0.000004 -1.091960 -7.313680 1.183951 0.548082 -0.000005 -0.000001 -0.124694 70.451755 -6.823607 -2.183218 25.598550 7.346969 -0.206459 
55.017300 -7.792127 85.673409 -2.482194 0.379079 1.170833 -1.350639 0.540316 -0.159563 1.303883 1.081040 -0.315267 2.949062 1.077072 -0.328033 8.195305 -8.726303 1.519751 7.882952 6.119549 1.802481 -13.269569 -63.692368 -15.836209 -46.324771 -116.975350 -44.556268 -0.000001 -0.000002 -0.000007 7.055288 -16.384669 0.886954 -0.000001 -0.000004 -3.000001 -5.000192 -7.998853 0.000159 -1.451202 50.900503 0.718893 -33.707438 122.189653 35.317583 -0.000000 0.000001 0.000005 6.999544 11.613693 -0.191244 0.000004 0.000003 3.000000 -5.000220 7.998703 -0.000152 -0.308991 -176.988042 0.578003 -179.999991 0.000005 -1.051994 171.656628 -3.780671 -0.728045 -0.000006 -0.000000 0.102074 69.785948 6.837421 2.216098 25.456918 -7.351775 -0.000002 1.493293 176.382231 1.010613 -0.000005 -0.000004 -1.091960 -7.317337 1.182424 0.548080 -0.000005 -0.000002 -0.124686 70.453142 -6.823595 -2.183232 25.598152 7.346966 -0.207044 
55.023499 -7.788876 85.674889 -2.484013 0.380306 1.167908 -1.349232 0.540304 -0.159548 1.306503 1.081299 -0.315027 2.951682 1.077339 -0.327798 8.190353 -8.735670 1.517495 7.882971 6.123689 1.801259 -13.280888 -63.695168 -15.849382 -46.330819 -116.967577 -44.567025 -0.000003 -0.000002 -0.000008 7.065400 -16.387111 0.888617 0.000001 -0.000004 -3.000001 -5.000192 -7.998854 0.000159 -1.455964 50.891446 0.723597 -33.712526 122.193382 35.321521 -0.000001 0.000001 0.000005 6.989622 11.612144 -0.190362 0.000002 0.000003 3.000001 -5.000220 7.998702 -0.000153 -0.305258 -176.991047 0.576916 -179.999991 0.000005 -1.051994 171.661628 -3.780719 -0.727715 -0.000006 -0.000000 0.102086 69.782882 6.837414 2.216187 25.456919 -7.351775 -0.000002 1.493154 176.381234 1.010405 -0.000005 -0.000004 -1.091960 -7.321632 1.180994 0.548093 -0.000006 -0.000001 -0.124736 70.454829 -6.823590 -2.183228 25.597845 7.346966 -0.207616 
55.022800 -7.788564 85.684303 -2.485604 0.381526 1.164972 -1.347860 0.540278 -0.159531 1.309053 1.081548 -0.314774 2.954233 1.077606 -0.327548 8.185859 -8.745313 1.515177 7.882586 6.128264 1.799931 -13.291729 -63.698112 -15.862008 -46.334801 -116.960214 -44.575611 -0.000000 -0.000001 -0.000008 7.075318 -16.389660 0.890307 -0.000000 -0.000004 -3.000001 -5.000189 -7.998853 0.000159 -1.460899 50.882283 0.728501 -33.717475 122.197057 35.324854 0.000001 0.000002 0.000004 6.978729 11.610323 -0.189360 0.000003 0.000003 3.000002 -5.000218 7.998705 -0.000152 -0.302108 -176.993042 0.575726 -179.999991 0.000005 -1.051994 171.666068 -3.779774 -0.727278 -0.000006 -0.000000 0.102113 69.780238 6.837422 2.216150 25.456921 -7.351775 -0.000002 1.492403 176.381234 1.010213 -0.000005 -0.000005 -1.091960 -7.326670 1.179682 0.548126 -0.000006 -0.000002 -0.124857 70.456857 -6.823622 -2.183108 25.597643 7.346968 -0.208186 
